0
SECTION
2
HEADER
9
$ACADVER
1
AC1014
9
$HANDSEED
5
FFFF
0
ENDSEC
0
SECTION
2
TABLES
0
TABLE
2
VPORT
5
8
100
AcDbSymbolTable
0
ENDTAB
0
TABLE
2
LTYPE
5
5
100
AcDbSymbolTable
0
LTYPE
5
14
100
AcDbSymbolTableRecord
100
AcDbLinetypeTableRecord
2
BYBLOCK
70
0
0
LTYPE
5
15
100
AcDbSymbolTableRecord
100
AcDbLinetypeTableRecord
2
BYLAYER
70
0
0
ENDTAB
0
TABLE
2
LAYER
5
2
100
AcDbSymbolTable
70
2
0
LAYER
5
50
100
AcDbSymbolTableRecord
100
AcDbLayerTableRecord
2
0
70
0
6
CONTINUOUS
0
ENDTAB
0
TABLE
2
STYLE
5
3
100
AcDbSymbolTable
70
1
0
STYLE
5
11
100
AcDbSymbolTableRecord
100
AcDbTextStyleTableRecord
2
STANDARD
70
0
0
ENDTAB
0
TABLE
2
VIEW
5
6
100
AcDbSymbolTable
70
0
0
ENDTAB
0
TABLE
2
UCS
5
7
100
AcDbSymbolTable
70
0
0
ENDTAB
0
TABLE
2
APPID
5
9
100
AcDbSymbolTable
70
2
0
APPID
5
12
100
AcDbSymbolTableRecord
100
AcDbRegAppTableRecord
2
ACAD
70
0
0
ENDTAB
0
TABLE
2
DIMSTYLE
5
A
100
AcDbSymbolTable
70
1
0
ENDTAB
0
TABLE
2
BLOCK_RECORD
5
1
100
AcDbSymbolTable
70
1
0
BLOCK_RECORD
5
1F
100
AcDbSymbolTableRecord
100
AcDbBlockTableRecord
2
*MODEL_SPACE
0
BLOCK_RECORD
5
1B
100
AcDbSymbolTableRecord
100
AcDbBlockTableRecord
2
*PAPER_SPACE
0
ENDTAB
0
ENDSEC
0
SECTION
2
BLOCKS
0
BLOCK
5
20
100
AcDbEntity
100
AcDbBlockBegin
2
*MODEL_SPACE
0
ENDBLK
5
21
100
AcDbEntity
100
AcDbBlockEnd
0
BLOCK
5
1C
100
AcDbEntity
100
AcDbBlockBegin
2
*PAPER_SPACE
0
ENDBLK
5
1D
100
AcDbEntity
100
AcDbBlockEnd
0
ENDSEC
0
SECTION
2
ENTITIES
0
LWPOLYLINE
5
100
100
AcDbEntity
8
0
100
AcDbPolyline
90
128
70
1
43
0.0
10
10
20
-38.5
42
-0.41421356237309698
10
8.5
20
-39.999999999999993
10
3.1379999999999901
20
-39.999999999999993
42
-0.41421356237309509
10
2.6299999999999999
20
-39.492000000000004
10
2.6299999999999986
20
-39.008000000000003
42
-0.41421356237309509
10
3.1380000000000003
20
-38.5
10
5.487000000000001
20
-38.500000000000007
42
0.41421356237309509
10
5.9950000000000001
20
-37.992000000000004
10
5.9950000000000072
20
-37.266240833245199
42
0.19891236737967843
10
5.8462102448427702
20
-36.907030588402407
10
2.7429694115975565
20
-33.803789755157233
42
0.19891236737964549
10
2.3837591667548303
20
-33.655000000000001
10
-2.3840795103144901
20
-33.655000000000044
42
0.19891236737963613
10
-2.7432897551572299
20
-33.803789755157197
10
-5.8462102448427933
20
-36.906710244842763
42
0.19891236737964155
10
-5.9950000000000001
20
-37.265920489685499
10
-5.9949999999999957
20
-37.992000000000004
42
0.41421356237309509
10
-5.487000000000001
20
-38.5
10
-3.1380000000000003
20
-38.5
42
-0.41421356237309509
10
-2.6299999999999999
20
-39.008000000000003
10
-2.6299999999999928
20
-39.492000000000004
42
-0.41421356237310047
10
-3.1379999999999999
20
-40
10
-8.5000000000000107
20
-39.999999999999993
42
-0.41421356237309509
10
-10
20
-38.5
10
-10.000000000000014
20
-33.137999999999998
42
-0.4142135623731002
10
-9.4920000000000009
20
-32.629999999999995
10
-9.0079999999999991
20
-32.630000000000003
42
-0.41421356237309509
10
-8.5
20
-33.137999999999998
10
-8.5
20
-35.487000000000002
42
0.41421356237310086
10
-7.992
20
-35.995000000000005
10
-7.2662408332451704
20
-35.994999999999997
42
0.19891236737964316
10
-6.907030588402411
20
-35.846210244842801
10
-3.8037897551572577
20
-32.742969411597585
42
0.19891236737967044
10
-3.6549999999999998
20
-32.3837591667548
10
-3.6549999999999971
20
-27.6159204896855
42
0.19891236737962847
10
-3.8037897551572302
20
-27.2567102448428
10
-6.9067102448427731
20
-24.153789755157216
42
0.19891236737964879
10
-7.2659204896855298
20
-24.005000000000003
10
-7.9919999999999902
20
-24.004999999999995
42
0.41421356237309509
10
-8.5
20
-24.512999999999998
10
-8.4999999999999982
20
-26.862000000000002
42
-0.41421356237310136
10
-9.0080000000000098
20
-27.370000000000001
10
-9.4920000000000009
20
-27.369999999999997
42
-0.41421356237309759
10
-10
20
-26.861999999999995
10
-10
20
-13.137999999999998
42
-0.41421356237309509
10
-9.4920000000000009
20
-12.629999999999999
10
-9.0080000000000098
20
-12.629999999999999
42
-0.41421356237309509
10
-8.5000000000000107
20
-13.137999999999998
10
-8.5
20
-15.487
42
0.41421356237309509
10
-7.992
20
-15.994999999999999
10
-7.2659204896855298
20
-15.994999999999999
42
0.19891236737966086
10
-6.9067102448427597
20
-15.846210244842762
10
-3.8037897551572311
20
-12.743289755157228
42
0.19891236737965209
10
-3.6549999999999998
20
-12.38407951031447
10
-3.6549999999999967
20
-7.6162408332451781
42
0.19891236737965753
10
-3.8037897551572302
20
-7.2570305884024089
10
-6.907030588402411
20
-4.1537897551572289
42
0.19891236737965834
10
-7.2662408332451811
20
-4.004999999999999
10
-7.992
20
-4.0049999999999963
42
0.41421356237309537
10
-8.5
20
-4.512999999999999
10
-8.5
20
-6.8619999999999992
42
-0.41421356237309509
10
-9.0079999999999991
20
-7.3699999999999992
10
-9.4920000000000009
20
-7.3699999999999974
42
-0.4142135623730957
10
-10
20
-6.8619999999999983
10
-10
20
-1.499999999999998
42
-0.41421356237309509
10
-8.5
20
1.1102230246251565e-15
10
-3.1380000000000003
20
2.7755575615628914e-15
42
-0.41421356237309509
10
-2.6299999999999999
20
-0.50799999999999734
10
-2.6300000000000008
20
-0.9920000075697788
42
-0.41421355800864573
10
-3.1380000000000003
20
-1.499999999999988
10
-5.487000000000001
20
-1.4999999999999898
42
0.41421356237310086
10
-5.9950000000000001
20
-2.0079999999999987
10
-5.9949999999999992
20
-2.7340795103144586
42
0.19891236737966148
10
-5.8462102448427613
20
-3.0932897551572385
10
-2.7432897551572251
20
-6.1962102448427636
42
0.19891236737964904
10
-2.3840795103144705
20
-6.3449999999999989
10
2.3837591667548299
20
-6.3450000000000042
42
0.19891236737965826
10
2.7429694115975902
20
-6.1962102448427681
10
5.8462102448427729
20
-3.0929694115975908
42
0.19891236737965987
10
5.9950000000000001
20
-2.733759166754818
10
5.9950000000000001
20
-2.0079999999999987
42
0.41421356237309509
10
5.487000000000001
20
-1.499999999999998
10
3.1380000000000003
20
-1.4999999999999996
42
-0.41421356237309509
10
2.6299999999999999
20
-0.99199999999999955
10
2.6300000000000017
20
-0.50799999999999745
42
-0.41421356237309537
10
3.1380000000000008
20
1.1102230246251565e-15
10
8.5
20
1.1102230246251565e-15
42
-0.4142135623730952
10
10
20
-1.4999999999999991
10
10
20
-6.8619999999999992
42
-0.41421356237309509
10
9.4920000000000009
20
-7.3699999999999992
10
9.0080000000000098
20
-7.3699999999999992
42
-0.41421356237309509
10
8.5000000000000107
20
-6.8619999999999992
10
8.5
20
-4.5129999999999981
42
0.41421356237309509
10
7.992
20
-4.004999999999999
10
7.2659204896855298
20
-4.0050000000000008
42
0.19891236737966167
10
6.9067102448427597
20
-4.1537897551572378
10
3.8037897551572297
20
-7.2567102448427683
42
0.19891236737965856
10
3.6549999999999998
20
-7.6159204896855295
10
3.6549999999999994
20
-12.383759166754819
42
0.19891236737965756
10
3.8037897551572302
20
-12.742969411597588
10
6.9070305884024128
20
-15.846210244842769
42
0.19891236737965926
10
7.2662408332451811
20
-15.994999999999999
10
7.992
20
-15.995000000000001
42
0.41421356237309509
10
8.5
20
-15.487
10
8.5
20
-13.137999999999998
42
-0.41421356237309509
10
9.0079999999999991
20
-12.629999999999999
10
9.4920000000000009
20
-12.629999999999999
42
-0.41421356237309637
10
10
20
-13.138000000000002
10
10.000000000000014
20
-26.861999999999998
42
-0.4142135623731002
10
9.4920000000000009
20
-27.370000000000001
10
9.0080000000000098
20
-27.370000000000012
42
-0.41421356237309759
10
8.5
20
-26.861999999999995
10
8.5
20
-24.512999999999998
42
0.41421356237309509
10
7.992
20
-24.005000000000003
10
7.2662408332451704
20
-24.005000000000006
42
0.19891236737964471
10
6.907030588402411
20
-24.153789755157202
10
3.8037897551572475
20
-27.257030588402422
42
0.19891236737966705
10
3.6549999999999998
20
-27.6162408332452
10
3.655000000000002
20
-32.3840795103145
42
0.19891236737963211
10
3.8037897551572404
20
-32.7432897551572
10
6.9067102448427553
20
-35.846210244842808
42
0.19891236737964058
10
7.2659204896855201
20
-35.995000000000005
10
7.9920000000000098
20
-35.994999999999997
42
0.41421356237309509
10
8.5
20
-35.487000000000002
10
8.4999999999999982
20
-33.137999999999998
42
-0.41421356237310136
10
9.0080000000000098
20
-32.629999999999995
10
9.4920000000000009
20
-32.630000000000003
42
-0.41421356237309509
10
10
20
-33.137999999999998
0
LWPOLYLINE
5
101
100
AcDbEntity
8
0
100
AcDbPolyline
90
24
70
1
43
0.0
10
8.5
20
-21.997
10
8.5
20
-18.003
42
0.41421356237309509
10
7.992
20
-17.494999999999997
10
6.6449204896855303
20
-17.495000000000005
42
-0.19891236737965798
10
6.28571024484277
20
-17.346210244842769
10
2.7432897551572335
20
-13.803789755157226
42
0.19891236737965401
10
2.3840795103144705
20
-13.654999999999999
10
-2.3837591667548299
20
-13.654999999999998
42
0.19891236737965468
10
-2.7429694115975902
20
-13.803789755157229
10
-6.285389901283116
20
-17.346210244842766
42
-0.19891236737965798
10
-6.6446001461258808
20
-17.494999999999997
10
-7.992
20
-17.495000000000001
42
0.41421356237309509
10
-8.5
20
-18.003
10
-8.5
20
-21.997
42
0.41421356237309509
10
-7.992
20
-22.505000000000003
10
-6.6446001461258897
20
-22.504999999999974
42
-0.19891236737964729
10
-6.2853899012831205
20
-22.653789755157199
10
-2.7429694115975773
20
-26.196210244842781
42
0.1989123673796451
10
-2.3837591667548303
20
-26.344999999999999
10
2.3840795103144701
20
-26.344999999999992
42
0.19891236737964332
10
2.7432897551572299
20
-26.196210244842799
10
6.2857102448427966
20
-22.653789755157227
42
-0.1989123673796504
10
6.6449204896855507
20
-22.505000000000003
10
7.992
20
-22.505000000000003
42
0.41421356237309509
0
LWPOLYLINE
5
102
100
AcDbEntity
8
0
100
AcDbPolyline
90
16
70
1
43
0.0
10
2.12449303679381
20
-32.304493036793801
10
2.3044930367938101
20
-32.124493036793801
42
0.58433019455586799
10
1.9357773907841707
20
-30.803729987824799
42
0.19934880077009184
10
1.9357773907841704
20
-29.196270012175205
42
0.58433019455586732
10
2.3044930367938101
20
-27.875506963206202
10
2.1244930367938184
20
-27.695506963206185
42
0.58433019455587842
10
0.80372998782477811
20
-28.064222609215832
42
0.19934880077008926
10
-0.80372998782480043
20
-28.064222609215797
42
0.58433019455586144
10
-2.12449303679381
20
-27.695506963206196
10
-2.3044930367938137
20
-27.875506963206192
42
0.58433019455586543
10
-1.9357773907841616
20
-29.196270012175205
42
0.19934880077009262
10
-1.9357773907841711
20
-30.803729987824795
42
0.58433019455586832
10
-2.3044930367938101
20
-32.124493036793801
10
-2.124493036793818
20
-32.304493036793808
42
0.58433019455587942
10
-0.80372998782477845
20
-31.935777390784168
42
0.1993488007700891
10
0.80372998782479887
20
-31.935777390784203
42
0.58433019455586299
0
LWPOLYLINE
5
103
100
AcDbEntity
8
0
100
AcDbPolyline
90
16
70
1
43
0.0
10
1.9357773907841684
20
-9.196270012175205
42
-0.19934880077009173
10
1.935777390784168
20
-10.803729987824793
42
-0.58433019455587232
10
2.3044930367938128
20
-12.124493036793812
10
2.1244930367938131
20
-12.304493036793813
42
-0.58433019455587132
10
0.80372998782479499
20
-11.935777390784168
42
-0.19934880077009173
10
-0.80372998782479443
20
-11.935777390784166
42
-0.58433019455587187
10
-2.1244930367938131
20
-12.304493036793811
10
-2.3044930367938128
20
-12.124493036793812
42
-0.58433019455587165
10
-1.9357773907841689
20
-10.803729987824793
42
-0.19934880077009162
10
-1.9357773907841682
20
-9.1962700121752032
42
-0.58433019455587198
10
-2.3044930367938132
20
-7.8755069632061856
10
-2.1244930367938131
20
-7.6955069632061859
42
-0.58433019455587154
10
-0.8037299878247941
20
-8.0642226092158307
42
-0.19934880077009173
10
0.80372998782479443
20
-8.0642226092158289
42
-0.58433019455587187
10
2.1244930367938131
20
-7.6955069632061868
10
2.3044930367938141
20
-7.8755069632061847
42
-0.58433019455587198
0
LWPOLYLINE
5
104
100
AcDbEntity
8
0
100
AcDbPolyline
90
128
70
1
43
0.0
10
10
20
-38.5
42
-0.41421356237309698
10
8.5
20
-39.999999999999993
10
3.1379999999999897
20
-39.999999999999993
42
-0.4142135623730947
10
2.6299999999999986
20
-39.492000000000004
10
2.630000000000003
20
-39.008000000000003
42
-0.41421356237309509
10
3.1380000000000003
20
-38.500000000000007
10
5.487000000000001
20
-38.5
42
0.41421356237309509
10
5.9950000000000028
20
-37.992000000000004
10
5.9950000000000001
20
-37.266240833245199
42
0.19891236737967891
10
5.8462102448427515
20
-36.907030588402421
10
2.7429694115975902
20
-33.803789755157197
42
0.19891236737964657
10
2.3837591667548299
20
-33.655000000000044
10
-2.3840795103144905
20
-33.655000000000001
42
0.19891236737963655
10
-2.7432897551571962
20
-33.80378975515724
10
-5.8462102448427613
20
-36.906710244842799
42
0.19891236737963802
10
-5.9950000000000028
20
-37.265920489685499
10
-5.9950000000000001
20
-37.992000000000004
42
0.41421356237309509
10
-5.487000000000001
20
-38.5
10
-3.1380000000000003
20
-38.5
42
-0.41421356237309509
10
-2.6299999999999972
20
-39.008000000000003
10
-2.6299999999999972
20
-39.492000000000004
42
-0.41421356237310086
10
-3.1380000000000008
20
-39.999999999999993
10
-8.5000000000000124
20
-39.999999999999993
42
-0.41421356237309481
10
-10
20
-38.5
10
-10.000000000000004
20
-33.137999999999998
42
-0.4142135623731002
10
-9.4920000000000009
20
-32.63000000000001
10
-9.0079999999999991
20
-32.629999999999995
42
-0.41421356237309509
10
-8.4999999999999982
20
-33.137999999999998
10
-8.5
20
-35.487000000000002
42
0.41421356237310086
10
-7.992
20
-35.994999999999997
10
-7.2662408332451704
20
-35.995000000000005
42
0.19891236737964435
10
-6.9070305884024252
20
-35.846210244842787
10
-3.8037897551572404
20
-32.742969411597599
42
0.19891236737966905
10
-3.6550000000000047
20
-32.3837591667548
10
-3.6549999999999998
20
-27.615920489685504
42
0.19891236737963261
10
-3.8037897551571955
20
-27.256710244842761
10
-6.9067102448427597
20
-24.153789755157202
42
0.19891236737964818
10
-7.2659204896855289
20
-24.004999999999992
10
-7.9919999999999902
20
-24.005000000000003
42
0.41421356237309509
10
-8.4999999999999929
20
-24.512999999999998
10
-8.5000000000000071
20
-26.861999999999995
42
-0.41421356237310397
10
-9.0080000000000098
20
-27.36999999999999
10
-9.4920000000000009
20
-27.370000000000001
42
-0.41421356237309509
10
-10.000000000000004
20
-26.861999999999998
10
-9.9999999999999982
20
-13.138000000000002
42
-0.41421356237309637
10
-9.4920000000000009
20
-12.630000000000001
10
-9.0080000000000098
20
-12.629999999999999
42
-0.41421356237309509
10
-8.5000000000000107
20
-13.137999999999998
10
-8.5
20
-15.487
42
0.41421356237309509
10
-7.992
20
-15.994999999999999
10
-7.2659204896855298
20
-15.994999999999999
42
0.19891236737966206
10
-6.9067102448427589
20
-15.84621024484276
10
-3.8037897551572302
20
-12.74328975515723
42
0.19891236737965279
10
-3.6549999999999954
20
-12.38407951031447
10
-3.6549999999999998
20
-7.616240833245179
42
0.19891236737965812
10
-3.8037897551572315
20
-7.2570305884024098
10
-6.907030588402411
20
-4.1537897551572289
42
0.19891236737965839
10
-7.2662408332451811
20
-4.0049999999999937
10
-7.992
20
-4.004999999999999
42
0.41421356237309509
10
-8.5000000000000018
20
-4.5129999999999981
10
-8.5
20
-6.8619999999999992
42
-0.41421356237309509
10
-9.0079999999999991
20
-7.3699999999999992
10
-9.4920000000000009
20
-7.3699999999999974
42
-0.41421356237309509
10
-10
20
-6.8619999999999992
10
-10
20
-1.4999999999999991
42
-0.4142135623730952
10
-8.5
20
2.2204460492503131e-15
10
-3.1380000000000008
20
1.6653345369377348e-15
42
-0.41421356237309537
10
-2.6300000000000012
20
-0.50799999999999734
10
-2.629999999999995
20
-0.9920000075697788
42
-0.41421355800864573
10
-3.1380000000000003
20
-1.4999999999999936
10
-5.487000000000001
20
-1.499999999999998
42
0.41421356237310086
10
-5.9949999999999992
20
-2.0079999999999987
10
-5.9950000000000001
20
-2.7340795103144586
42
0.19891236737966206
10
-5.8462102448427578
20
-3.0932897551572367
10
-2.7432897551572299
20
-6.1962102448427681
42
0.19891236737964926
10
-2.3840795103144705
20
-6.3449999999999935
10
2.3837591667548303
20
-6.3449999999999989
42
0.19891236737965792
10
2.7429694115975929
20
-6.1962102448427716
10
5.8462102448427702
20
-3.0929694115975876
42
0.19891236737965981
10
5.995000000000001
20
-2.733759166754818
10
5.9950000000000001
20
-2.0079999999999987
42
0.41421356237309509
10
5.487000000000001
20
-1.4999999999999987
10
3.1380000000000003
20
-1.4999999999999996
42
-0.41421356237309515
10
2.6299999999999999
20
-0.99199999999999944
10
2.629999999999995
20
-0.50799999999999734
42
-0.41421356237309509
10
3.1380000000000008
20
7.7021722333370235e-15
10
8.5
20
1.1102230246251565e-15
42
-0.41421356237309509
10
10
20
-1.499999999999998
10
10
20
-6.8619999999999983
42
-0.4142135623730957
10
9.4920000000000009
20
-7.3699999999999974
10
9.0080000000000098
20
-7.3699999999999992
42
-0.41421356237309509
10
8.5000000000000107
20
-6.8619999999999992
10
8.5
20
-4.512999999999999
42
0.41421356237309537
10
7.992
20
-4.0049999999999981
10
7.2659204896855298
20
-4.004999999999999
42
0.19891236737966159
10
6.9067102448427606
20
-4.1537897551572387
10
3.8037897551572302
20
-7.2567102448427692
42
0.19891236737965781
10
3.6549999999999985
20
-7.6159204896855286
10
3.6549999999999998
20
-12.383759166754817
42
0.19891236737965892
10
3.8037897551572328
20
-12.742969411597587
10
6.907030588402411
20
-15.846210244842769
42
0.19891236737966056
10
7.266240833245182
20
-15.994999999999994
10
7.992
20
-15.994999999999999
42
0.41421356237309509
10
8.5000000000000018
20
-15.487
10
8.5
20
-13.137999999999998
42
-0.41421356237309509
10
9.0079999999999991
20
-12.629999999999999
10
9.4920000000000009
20
-12.629999999999999
42
-0.41421356237309509
10
10
20
-13.137999999999998
10
10.000000000000004
20
-26.861999999999995
42
-0.41421356237310269
10
9.4920000000000009
20
-27.36999999999999
10
9.0080000000000098
20
-27.370000000000005
42
-0.41421356237309509
10
8.5000000000000036
20
-26.861999999999998
10
8.5
20
-24.512999999999998
42
0.41421356237309509
10
7.992
20
-24.004999999999995
10
7.2662408332451704
20
-24.005000000000003
42
0.19891236737964355
10
6.9070305884024279
20
-24.153789755157216
10
3.8037897551572302
20
-27.257030588402404
42
0.19891236737966725
10
3.6550000000000002
20
-27.6162408332452
10
3.6549999999999998
20
-32.3840795103145
42
0.19891236737963314
10
3.8037897551572031
20
-32.743289755157235
10
6.9067102448427597
20
-35.846210244842801
42
0.19891236737964049
10
7.2659204896855201
20
-35.99500000000004
10
7.9920000000000098
20
-35.995000000000005
42
0.41421356237309509
10
8.5000000000000071
20
-35.487000000000002
10
8.5000000000000071
20
-33.137999999999998
42
-0.41421356237310136
10
9.0080000000000098
20
-32.63000000000001
10
9.4920000000000009
20
-32.629999999999995
42
-0.41421356237309509
10
10.000000000000004
20
-33.137999999999998
0
LWPOLYLINE
5
105
100
AcDbEntity
8
0
100
AcDbPolyline
90
24
70
1
43
0.0
10
8.5
20
-18.003
10
8.5000000000000018
20
-21.997
42
-0.41421356237309509
10
7.992
20
-22.505000000000003
10
6.6449204896855507
20
-22.504999999999967
42
0.19891236737965076
10
6.28571024484277
20
-22.653789755157199
10
2.7432897551572175
20
-26.196210244842785
42
-0.19891236737964357
10
2.3840795103144705
20
-26.344999999999999
10
-2.3837591667548326
20
-26.34500000000002
42
-0.1989123673796423
10
-2.7429694115975902
20
-26.196210244842799
10
-6.2853899012831373
20
-22.653789755157213
42
0.19891236737964554
10
-6.6446001461258897
20
-22.505000000000003
10
-7.992
20
-22.505000000000003
42
-0.41421356237309509
10
-8.5
20
-21.997
10
-8.5000000000000018
20
-18.003
42
-0.41421356237309509
10
-7.992
20
-17.494999999999997
10
-6.6446001461258808
20
-17.494999999999994
42
0.19891236737965798
10
-6.2853899012831205
20
-17.346210244842762
10
-2.7429694115975911
20
-13.803789755157228
42
-0.19891236737965431
10
-2.3837591667548299
20
-13.654999999999999
10
2.3840795103144705
20
-13.655000000000001
42
-0.19891236737965443
10
2.7432897551572299
20
-13.803789755157229
10
6.2857102448427682
20
-17.346210244842773
42
0.19891236737965798
10
6.6449204896855303
20
-17.494999999999997
10
7.992
20
-17.494999999999997
42
-0.41421356237309509
0
LWPOLYLINE
5
106
100
AcDbEntity
8
0
100
AcDbPolyline
90
16
70
1
43
0.0
10
2.3044930367938101
20
-32.124493036793801
10
2.1244930367938304
20
-32.304493036793822
42
-0.58433019455588198
10
0.80372998782479965
20
-31.935777390784217
42
-0.19934880077008962
10
-0.80372998782481442
20
-31.935777390784196
42
-0.58433019455586266
10
-2.12449303679381
20
-32.304493036793801
10
-2.3044930367938141
20
-32.124493036793808
42
-0.58433019455587287
10
-1.9357773907841711
20
-30.803729987824799
42
-0.19934880077009057
10
-1.93577739078417
20
-29.196270012175198
42
-0.58433019455585944
10
-2.3044930367938101
20
-27.875506963206202
10
-2.1244930367938295
20
-27.695506963206181
42
-0.5843301945558822
10
-0.80372998782478955
20
-28.064222609215811
42
-0.19934880077008962
10
0.80372998782481042
20
-28.064222609215808
42
-0.58433019455586344
10
2.12449303679381
20
-27.695506963206196
10
2.3044930367938194
20
-27.875506963206188
42
-0.58433019455586666
10
1.9357773907841722
20
-29.196270012175205
42
-0.1993488007700932
10
1.9357773907841698
20
-30.803729987824809
42
-0.58433019455586799
0
LWPOLYLINE
5
107
100
AcDbEntity
8
0
100
AcDbPolyline
90
16
70
1
43
0.0
10
1.9357773907841684
20
-9.196270012175205
42
-0.19934880077009173
10
1.9357773907841676
20
-10.803729987824797
42
-0.58433019455587232
10
2.3044930367938101
20
-12.124493036793808
10
2.1244930367938148
20
-12.304493036793813
42
-0.58433019455587198
10
0.80372998782479499
20
-11.935777390784171
42
-0.19934880077009162
10
-0.80372998782479876
20
-11.935777390784171
42
-0.58433019455587043
10
-2.12449303679381
20
-12.304493036793808
10
-2.3044930367938132
20
-12.124493036793814
42
-0.58433019455587254
10
-1.9357773907841711
20
-10.803729987824791
42
-0.19934880077009126
10
-1.9357773907841684
20
-9.1962700121751997
42
-0.58433019455587132
10
-2.3044930367938101
20
-7.8755069632061891
10
-2.1244930367938153
20
-7.6955069632061832
42
-0.58433019455587132
10
-0.8037299878247911
20
-8.0642226092158289
42
-0.19934880077009137
10
0.80372998782479821
20
-8.0642226092158307
42
-0.58433019455587132
10
2.12449303679381
20
-7.6955069632061885
10
2.3044930367938141
20
-7.8755069632061847
42
-0.58433019455587198
0
ENDSEC
0
SECTION
2
OBJECTS
0
DICTIONARY
5
C
100
AcDbDictionary
3
ACAD_GROUP
350
D
3
ACAD_MLINESTYLE
350
17
0
DICTIONARY
5
D
100
AcDbDictionary
0
DICTIONARY
5
1A
330
C
100
AcDbDictionary
0
DICTIONARY
5
17
100
AcDbDictionary
0
ENDSEC
0
EOF
