0
SECTION
2
HEADER
9
$ACADVER
1
AC1014
9
$HANDSEED
5
FFFF
0
ENDSEC
0
SECTION
2
TABLES
0
TABLE
2
VPORT
5
8
100
AcDbSymbolTable
0
ENDTAB
0
TABLE
2
LTYPE
5
5
100
AcDbSymbolTable
0
LTYPE
5
14
100
AcDbSymbolTableRecord
100
AcDbLinetypeTableRecord
2
BYBLOCK
70
0
0
LTYPE
5
15
100
AcDbSymbolTableRecord
100
AcDbLinetypeTableRecord
2
BYLAYER
70
0
0
ENDTAB
0
TABLE
2
LAYER
5
2
100
AcDbSymbolTable
70
2
0
LAYER
5
50
100
AcDbSymbolTableRecord
100
AcDbLayerTableRecord
2
0
70
0
6
CONTINUOUS
0
ENDTAB
0
TABLE
2
STYLE
5
3
100
AcDbSymbolTable
70
1
0
STYLE
5
11
100
AcDbSymbolTableRecord
100
AcDbTextStyleTableRecord
2
STANDARD
70
0
0
ENDTAB
0
TABLE
2
VIEW
5
6
100
AcDbSymbolTable
70
0
0
ENDTAB
0
TABLE
2
UCS
5
7
100
AcDbSymbolTable
70
0
0
ENDTAB
0
TABLE
2
APPID
5
9
100
AcDbSymbolTable
70
2
0
APPID
5
12
100
AcDbSymbolTableRecord
100
AcDbRegAppTableRecord
2
ACAD
70
0
0
ENDTAB
0
TABLE
2
DIMSTYLE
5
A
100
AcDbSymbolTable
70
1
0
ENDTAB
0
TABLE
2
BLOCK_RECORD
5
1
100
AcDbSymbolTable
70
1
0
BLOCK_RECORD
5
1F
100
AcDbSymbolTableRecord
100
AcDbBlockTableRecord
2
*MODEL_SPACE
0
BLOCK_RECORD
5
1B
100
AcDbSymbolTableRecord
100
AcDbBlockTableRecord
2
*PAPER_SPACE
0
ENDTAB
0
ENDSEC
0
SECTION
2
BLOCKS
0
BLOCK
5
20
100
AcDbEntity
100
AcDbBlockBegin
2
*MODEL_SPACE
0
ENDBLK
5
21
100
AcDbEntity
100
AcDbBlockEnd
0
BLOCK
5
1C
100
AcDbEntity
100
AcDbBlockBegin
2
*PAPER_SPACE
0
ENDBLK
5
1D
100
AcDbEntity
100
AcDbBlockEnd
0
ENDSEC
0
SECTION
2
ENTITIES
0
ARC
5
100
100
AcDbEntity
8
0
100
AcDbCircle
10
-8.5000000000000178
20
-58.5
30
0
40
1.4999999999999813
100
AcDbArc
50
180
51
270.00000000000068
0
LINE
5
101
100
AcDbEntity
8
0
100
AcDbLine
10
-10
20
-58.5
30
0
11
-10
21
-53.137999999999998
31
0
0
ARC
5
102
100
AcDbEntity
8
0
100
AcDbCircle
10
-9.4920000000000044
20
-53.137999999999998
30
0
40
0.50799999999999734
100
AcDbArc
50
89.999999999999602
51
180
0
LINE
5
103
100
AcDbEntity
8
0
100
AcDbLine
10
-9.4920000000000009
20
-52.629999999999995
30
0
11
-9.0080000000000098
21
-52.629999999999995
31
0
0
ARC
5
104
100
AcDbEntity
8
0
100
AcDbCircle
10
-9.0080000000000009
20
-53.138000000000012
30
0
40
0.5079999999999929
100
AcDbArc
50
0
51
90.000000000000995
0
LINE
5
105
100
AcDbEntity
8
0
100
AcDbLine
10
-8.5000000000000089
20
-53.138000000000005
30
0
11
-8.5
21
-55.487000000000002
31
0
0
ARC
5
106
100
AcDbEntity
8
0
100
AcDbCircle
10
-7.9920000000000009
20
-55.486999999999995
30
0
40
0.50799999999999956
100
AcDbArc
50
180
51
269.99999999999898
0
LINE
5
107
100
AcDbEntity
8
0
100
AcDbLine
10
-7.9920000000000098
20
-55.994999999999997
30
0
11
-7.2659204896855201
21
-55.995000000000005
31
0
0
ARC
5
108
100
AcDbEntity
8
0
100
AcDbCircle
10
-7.2659204896855387
20
-55.487000000000009
30
0
40
0.50799999999999734
100
AcDbArc
50
270.0000000000021
51
314.99999999999983
0
LINE
5
109
100
AcDbEntity
8
0
100
AcDbLine
10
-6.9067102448427553
20
-55.846210244842794
30
0
11
-3.8037897551572404
21
-52.743289755157193
31
0
0
ARC
5
110
100
AcDbEntity
8
0
100
AcDbCircle
10
-4.1630000000000242
20
-52.384079510314486
30
0
40
0.50799999999997092
100
AcDbArc
50
315.00000000000608
51
360
0
LINE
5
111
100
AcDbEntity
8
0
100
AcDbLine
10
-3.655000000000002
20
-52.384079510314493
30
0
11
-3.6549999999999998
21
-47.6162408332452
31
0
0
ARC
5
112
100
AcDbEntity
8
0
100
AcDbCircle
10
-4.1629999999999781
20
-47.6162408332452
30
0
40
0.50799999999997791
100
AcDbArc
50
0
51
45.000000000004107
0
LINE
5
113
100
AcDbEntity
8
0
100
AcDbLine
10
-3.8037897551572515
20
-47.257030588402422
30
0
11
-6.907030588402411
21
-44.153789755157206
31
0
0
ARC
5
114
100
AcDbEntity
8
0
100
AcDbCircle
10
-7.2662408332451971
20
-44.513000000000041
30
0
40
0.5080000000000664
100
AcDbArc
50
45.000000000003901
51
89.999999999997002
0
LINE
5
115
100
AcDbEntity
8
0
100
AcDbLine
10
-7.2662408332451704
20
-44.005000000000003
30
0
11
-7.992
21
-44.005000000000003
31
0
0
ARC
5
116
100
AcDbEntity
8
0
100
AcDbCircle
10
-7.9920000000000124
20
-44.512999999999991
30
0
40
0.50799999999998846
100
AcDbArc
50
89.999999999998607
51
180
0
LINE
5
117
100
AcDbEntity
8
0
100
AcDbLine
10
-8.5
20
-44.512999999999998
30
0
11
-8.5
21
-46.861999999999995
31
0
0
ARC
5
118
100
AcDbEntity
8
0
100
AcDbCircle
10
-9.0080000000000098
20
-46.861999999999995
30
0
40
0.50800000000000622
100
AcDbArc
50
-90
51
0
0
LINE
5
119
100
AcDbEntity
8
0
100
AcDbLine
10
-9.0080000000000098
20
-47.370000000000005
30
0
11
-9.4920000000000009
21
-47.370000000000005
31
0
0
ARC
5
120
100
AcDbEntity
8
0
100
AcDbCircle
10
-9.492000000000008
20
-46.861999999999988
30
0
40
0.50799999999999401
100
AcDbArc
50
180
51
270.0000000000008
0
LINE
5
121
100
AcDbEntity
8
0
100
AcDbLine
10
-10.000000000000002
20
-46.861999999999995
30
0
11
-10
21
-33.137999999999998
31
0
0
ARC
5
122
100
AcDbEntity
8
0
100
AcDbCircle
10
-9.4920000000000044
20
-33.137999999999998
30
0
40
0.5079999999999929
100
AcDbArc
50
89.999999999999602
51
180
0
LINE
5
123
100
AcDbEntity
8
0
100
AcDbLine
10
-9.4920000000000009
20
-32.630000000000003
30
0
11
-9.0079999999999991
21
-32.629999999999995
31
0
0
ARC
5
124
100
AcDbEntity
8
0
100
AcDbCircle
10
-9.0080000000000009
20
-33.137999999999998
30
0
40
0.50800000000000178
100
AcDbArc
50
0
51
89.999999999999801
0
LINE
5
125
100
AcDbEntity
8
0
100
AcDbLine
10
-8.5
20
-33.137999999999998
30
0
11
-8.5
21
-35.487000000000002
31
0
0
ARC
5
126
100
AcDbEntity
8
0
100
AcDbCircle
10
-7.9920000000000044
20
-35.487000000000009
30
0
40
0.50799999999999623
100
AcDbArc
50
180
51
270.00000000000051
0
LINE
5
127
100
AcDbEntity
8
0
100
AcDbLine
10
-7.992
20
-35.995000000000005
30
0
11
-7.2662408332451811
21
-35.994999999999997
31
0
0
ARC
5
128
100
AcDbEntity
8
0
100
AcDbCircle
10
-7.2662408332451669
20
-35.487000000000016
30
0
40
0.50799999999998402
100
AcDbArc
50
269.99999999999835
51
314.99999999999977
0
LINE
5
129
100
AcDbEntity
8
0
100
AcDbLine
10
-6.9070305884024128
20
-35.846210244842773
30
0
11
-3.8037897551572302
21
-32.742969411597592
31
0
0
ARC
5
130
100
AcDbEntity
8
0
100
AcDbCircle
10
-4.1630000000000065
20
-32.383759166754814
30
0
40
0.50800000000001222
100
AcDbArc
50
314.99999999999983
51
360
0
LINE
5
131
100
AcDbEntity
8
0
100
AcDbLine
10
-3.6549999999999989
20
-32.383759166754821
30
0
11
-3.6549999999999998
21
-27.615920489685529
31
0
0
LINE
5
132
100
AcDbEntity
8
0
100
AcDbLine
10
3.6549999999999945
20
-27.616240833245179
30
0
11
3.6549999999999998
21
-32.384079510314471
31
0
0
ARC
5
133
100
AcDbEntity
8
0
100
AcDbCircle
10
4.1629999999999878
20
-32.384079510314471
30
0
40
0.50799999999998791
100
AcDbArc
50
180
51
224.99999999999977
0
LINE
5
134
100
AcDbEntity
8
0
100
AcDbLine
10
3.8037897551572284
20
-32.743289755157228
30
0
11
6.9067102448427597
21
-35.846210244842766
31
0
0
ARC
5
135
100
AcDbEntity
8
0
100
AcDbCircle
10
7.2659204896855378
20
-35.486999999999995
30
0
40
0.50800000000001055
100
AcDbArc
50
224.99999999999943
51
269.99999999999909
0
LINE
5
136
100
AcDbEntity
8
0
100
AcDbLine
10
7.2659204896855298
20
-35.995000000000005
30
0
11
7.992
21
-35.994999999999997
31
0
0
ARC
5
137
100
AcDbEntity
8
0
100
AcDbCircle
10
7.9919999999999956
20
-35.486999999999995
30
0
40
0.50800000000000178
100
AcDbArc
50
270.00000000000051
51
360
0
LINE
5
138
100
AcDbEntity
8
0
100
AcDbLine
10
8.5000000000000018
20
-35.487000000000002
30
0
11
8.5000000000000107
21
-33.137999999999998
31
0
0
ARC
5
139
100
AcDbEntity
8
0
100
AcDbCircle
10
9.0080000000000133
20
-33.137999999999998
30
0
40
0.50800000000000178
100
AcDbArc
50
90.000000000000398
51
180
0
LINE
5
140
100
AcDbEntity
8
0
100
AcDbLine
10
9.0080000000000098
20
-32.629999999999995
30
0
11
9.4920000000000009
21
-32.629999999999995
31
0
0
ARC
5
141
100
AcDbEntity
8
0
100
AcDbCircle
10
9.4920000000000044
20
-33.137999999999998
30
0
40
0.50799999999999512
100
AcDbArc
50
0
51
90.000000000000398
0
LINE
5
142
100
AcDbEntity
8
0
100
AcDbLine
10
10
20
-33.137999999999998
30
0
11
10
21
-46.861999999999995
31
0
0
ARC
5
143
100
AcDbEntity
8
0
100
AcDbCircle
10
9.4920000000000044
20
-46.862000000000002
30
0
40
0.50799999999999734
100
AcDbArc
50
-90.000000000000398
51
0
0
LINE
5
144
100
AcDbEntity
8
0
100
AcDbLine
10
9.4920000000000009
20
-47.370000000000005
30
0
11
9.0080000000000098
21
-47.370000000000005
31
0
0
ARC
5
145
100
AcDbEntity
8
0
100
AcDbCircle
10
9.0079999999999956
20
-46.862000000000002
30
0
40
0.50799999999999068
100
AcDbArc
50
180
51
270.00000000000159
0
LINE
5
146
100
AcDbEntity
8
0
100
AcDbLine
10
8.5000000000000036
20
-46.861999999999995
30
0
11
8.5
21
-44.512999999999998
31
0
0
ARC
5
147
100
AcDbEntity
8
0
100
AcDbCircle
10
7.991999999999992
20
-44.512999999999991
30
0
40
0.50800000000000844
100
AcDbArc
50
0
51
90.000000000000199
0
LINE
5
148
100
AcDbEntity
8
0
100
AcDbLine
10
7.9919999999999902
20
-44.004999999999995
30
0
11
7.2659204896855298
21
-44.005000000000003
31
0
0
ARC
5
149
100
AcDbEntity
8
0
100
AcDbCircle
10
7.2659204896855343
20
-44.513000000000005
30
0
40
0.50800000000000622
100
AcDbArc
50
90.000000000000497
51
134.99999999999724
0
LINE
5
150
100
AcDbEntity
8
0
100
AcDbLine
10
6.9067102448427766
20
-44.153789755157213
30
0
11
3.8037897551572302
21
-47.256710244842793
31
0
0
ARC
5
151
100
AcDbEntity
8
0
100
AcDbCircle
10
4.1630000000000207
20
-47.615920489685514
30
0
40
0.50799999999998158
100
AcDbArc
50
135.00000000000554
51
180
0
LINE
5
152
100
AcDbEntity
8
0
100
AcDbLine
10
3.6549999999999958
20
-47.615920489685507
30
0
11
3.6549999999999998
21
-52.3837591667548
31
0
0
ARC
5
153
100
AcDbEntity
8
0
100
AcDbCircle
10
4.1630000000000198
20
-52.383759166754793
30
0
40
0.5080000000000201
100
AcDbArc
50
180
51
225.00000000000253
0
LINE
5
154
100
AcDbEntity
8
0
100
AcDbLine
10
3.8037897551572595
20
-52.742969411597585
30
0
11
6.907030588402411
21
-55.846210244842794
31
0
0
ARC
5
155
100
AcDbEntity
8
0
100
AcDbCircle
10
7.2662408332451882
20
-55.486999999999952
30
0
40
0.5080000000000664
100
AcDbArc
50
225.00000000000517
51
269.99999999999801
0
LINE
5
156
100
AcDbEntity
8
0
100
AcDbLine
10
7.2662408332451704
20
-55.994999999999997
30
0
11
7.992
21
-55.995000000000005
31
0
0
ARC
5
157
100
AcDbEntity
8
0
100
AcDbCircle
10
7.9920000000000098
20
-55.487000000000002
30
0
40
0.50800000000000622
100
AcDbArc
50
-90.000000000001123
51
0
0
LINE
5
158
100
AcDbEntity
8
0
100
AcDbLine
10
8.4999999999999982
20
-55.487000000000002
30
0
11
8.5
21
-53.138000000000005
31
0
0
ARC
5
159
100
AcDbEntity
8
0
100
AcDbCircle
10
9.0079999999999956
20
-53.137999999999998
30
0
40
0.50799999999999734
100
AcDbArc
50
89.999999999999602
51
180
0
LINE
5
160
100
AcDbEntity
8
0
100
AcDbLine
10
9.0079999999999991
20
-52.629999999999995
30
0
11
9.4920000000000009
21
-52.629999999999995
31
0
0
ARC
5
161
100
AcDbEntity
8
0
100
AcDbCircle
10
9.4919999999999973
20
-53.138000000000012
30
0
40
0.50800000000000733
100
AcDbArc
50
0
51
89.999999999999602
0
LINE
5
162
100
AcDbEntity
8
0
100
AcDbLine
10
10.000000000000004
20
-53.138000000000005
30
0
11
10
21
-58.500000000000007
31
0
0
ARC
5
163
100
AcDbEntity
8
0
100
AcDbCircle
10
8.5000000000000249
20
-58.500000000000007
30
0
40
1.4999999999999769
100
AcDbArc
50
-90.000000000000568
51
0
0
LINE
5
164
100
AcDbEntity
8
0
100
AcDbLine
10
8.5000000000000107
20
-59.999999999999986
30
0
11
3.1379999999999999
21
-60
31
0
0
ARC
5
165
100
AcDbEntity
8
0
100
AcDbCircle
10
3.1379999999999924
20
-59.49199999999999
30
0
40
0.50799999999999346
100
AcDbArc
50
180
51
270.00000000000085
0
LINE
5
166
100
AcDbEntity
8
0
100
AcDbLine
10
2.629999999999999
20
-59.492000000000004
30
0
11
2.6299999999999999
21
-59.008000000000003
31
0
0
ARC
5
167
100
AcDbEntity
8
0
100
AcDbCircle
10
3.1379999999999968
20
-59.007999999999996
30
0
40
0.50799999999999734
100
AcDbArc
50
89.999999999999602
51
180
0
LINE
5
168
100
AcDbEntity
8
0
100
AcDbLine
10
3.1380000000000003
20
-58.5
30
0
11
5.487000000000001
21
-58.5
31
0
0
ARC
5
169
100
AcDbEntity
8
0
100
AcDbCircle
10
5.4869999999999921
20
-57.991999999999997
30
0
40
0.50799999999999734
100
AcDbArc
50
270.00000000000102
51
360
0
LINE
5
170
100
AcDbEntity
8
0
100
AcDbLine
10
5.9949999999999983
20
-57.992000000000004
30
0
11
5.9950000000000001
21
-57.265920489685499
31
0
0
ARC
5
171
100
AcDbEntity
8
0
100
AcDbCircle
10
5.4869999999999894
20
-57.265920489685513
30
0
40
0.50800000000001067
100
AcDbArc
50
0
51
44.999999999994834
0
LINE
5
172
100
AcDbEntity
8
0
100
AcDbLine
10
5.8462102448427968
20
-56.90671024484277
30
0
11
2.7432897551572299
21
-53.803789755157197
31
0
0
ARC
5
173
100
AcDbEntity
8
0
100
AcDbCircle
10
2.3840795103145167
20
-54.162999999999961
30
0
40
0.5079999999999586
100
AcDbArc
50
45.000000000004036
51
90.000000000003013
0
LINE
5
174
100
AcDbEntity
8
0
100
AcDbLine
10
2.3840795103144901
20
-53.655000000000044
30
0
11
-2.3837591667548303
21
-53.655000000000008
31
0
0
ARC
5
175
100
AcDbEntity
8
0
100
AcDbCircle
10
-2.3837591667548437
20
-54.163000000000004
30
0
40
0.50799999999999734
100
AcDbArc
50
89.999999999998494
51
134.9999999999948
0
LINE
5
176
100
AcDbEntity
8
0
100
AcDbLine
10
-2.7429694115975565
20
-53.803789755157226
30
0
11
-5.8462102448427702
21
-56.907030588402407
31
0
0
ARC
5
177
100
AcDbEntity
8
0
100
AcDbCircle
10
-5.4870000000000463
20
-57.266240833245199
30
0
40
0.5079999999999909
100
AcDbArc
50
134.99999999999454
51
180
0
LINE
5
178
100
AcDbEntity
8
0
100
AcDbLine
10
-5.9950000000000117
20
-57.266240833245199
30
0
11
-5.9950000000000001
21
-57.992000000000004
31
0
0
ARC
5
179
100
AcDbEntity
8
0
100
AcDbCircle
10
-5.4870000000000037
20
-57.992000000000019
30
0
40
0.50799999999999623
100
AcDbArc
50
180
51
270.00000000000034
0
LINE
5
180
100
AcDbEntity
8
0
100
AcDbLine
10
-5.487000000000001
20
-58.500000000000014
30
0
11
-3.1380000000000003
21
-58.5
31
0
0
ARC
5
181
100
AcDbEntity
8
0
100
AcDbCircle
10
-3.1379999999999901
20
-59.007999999999996
30
0
40
0.50799999999998791
100
AcDbArc
50
0
51
90.000000000001165
0
LINE
5
182
100
AcDbEntity
8
0
100
AcDbLine
10
-2.6300000000000026
20
-59.008000000000003
30
0
11
-2.6299999999999999
21
-59.492000000000004
31
0
0
ARC
5
183
100
AcDbEntity
8
0
100
AcDbCircle
10
-3.1379999999999866
20
-59.492000000000004
30
0
40
0.50799999999998846
100
AcDbArc
50
-90.000000000000398
51
0
0
LINE
5
184
100
AcDbEntity
8
0
100
AcDbLine
10
-3.1379999999999901
20
-59.999999999999993
30
0
11
-8.5
21
-59.999999999999986
31
0
0
LWPOLYLINE
5
185
100
AcDbEntity
8
0
100
AcDbPolyline
90
24
70
1
43
0.0
10
-8.5
20
-41.997
10
-8.4999999999999982
20
-38.003
42
-0.4142135623731002
10
-7.992
20
-37.495000000000005
10
-6.6449204896855329
20
-37.495000000000005
42
0.1989123673796587
10
-6.28571024484277
20
-37.346210244842773
10
-2.7432897551572322
20
-33.803789755157226
42
-0.19891236737966148
10
-2.3840795103144701
20
-33.655000000000001
10
2.3837591667548303
20
-33.655000000000001
42
-0.1989123673796416
10
2.7429694115975902
20
-33.803789755157233
10
6.2853899012831205
20
-37.346210244842759
42
0.19891236737965798
10
6.6446001461258808
20
-37.495000000000005
10
7.992
20
-37.494999999999997
42
-0.41421356237308993
10
8.5
20
-38.003
10
8.5000000000000107
20
-41.997
42
-0.41421356237310719
10
7.992
20
-42.50500000000001
10
6.6446001461258906
20
-42.504999999999995
42
0.19891236737964924
10
6.2853899012831205
20
-42.653789755157199
10
2.7429694115975662
20
-46.196210244842781
42
-0.19891236737961254
10
2.3837591667548303
20
-46.344999999999999
10
-2.3840795103144701
20
-46.345000000000027
42
-0.19891236737966295
10
-2.7432897551572299
20
-46.196210244842803
10
-6.2857102448427717
20
-42.653789755157206
42
0.19891236737964388
10
-6.6449204896855507
20
-42.50500000000001
10
-7.992
20
-42.504999999999995
42
-0.41421356237310719
0
LWPOLYLINE
5
186
100
AcDbEntity
8
0
100
AcDbPolyline
90
16
70
1
43
0.0
10
-2.12449303679381
20
-52.304493036793794
10
-2.3044930367938066
20
-52.124493036793794
42
-0.58433019455586421
10
-1.935777390784192
20
-50.803729987824809
42
-0.19934880077009173
10
-1.9357773907841671
20
-49.196270012175198
42
-0.58433019455586466
10
-2.3044930367938101
20
-47.875506963206192
10
-2.1244930367938353
20
-47.695506963206178
42
-0.58433019455587476
10
-0.803729987824787
20
-48.064222609215797
42
-0.19934880077008524
10
0.8037299878248183
20
-48.064222609215804
42
-0.58433019455586421
10
2.12449303679381
20
-47.695506963206206
10
2.3044930367938194
20
-47.875506963206192
42
-0.58433019455586688
10
1.9357773907841433
20
-49.196270012175212
42
-0.19934880077009218
10
1.9357773907841715
20
-50.803729987824788
42
-0.58433019455586699
10
2.3044930367938101
20
-52.124493036793808
10
2.1244930367938308
20
-52.304493036793822
42
-0.58433019455588875
10
0.8037299878247981
20
-51.93577739078421
42
-0.19934880077009218
10
-0.80372998782480942
20
-51.935777390784203
42
-0.58433019455586577
0
ARC
5
187
100
AcDbEntity
8
0
100
AcDbCircle
10
-3.6082248300317588e-15
20
-30
30
0
40
2.0959999999999983
100
AcDbArc
50
157.45189588980344
51
202.54810411019668
0
ARC
5
188
100
AcDbEntity
8
0
100
AcDbCircle
10
-1.7479999999999984
20
-31.568000000000001
30
0
40
0.7869999999999997
100
AcDbArc
50
103.80386529230094
51
224.99999999999957
0
LINE
5
189
100
AcDbEntity
8
0
100
AcDbLine
10
-2.3044930367938137
20
-32.124493036793808
30
0
11
-2.12449303679381
21
-32.304493036793815
31
0
0
ARC
5
190
100
AcDbEntity
8
0
100
AcDbCircle
10
-1.5680000000000001
20
-31.747999999999998
30
0
40
0.78699999999999937
100
AcDbArc
50
225.0000000000004
51
346.19613470769877
0
ARC
5
191
100
AcDbEntity
8
0
100
AcDbCircle
10
-3.6082248300317588e-15
20
-30
30
0
40
2.0960000000000019
100
AcDbArc
50
247.4518958898035
51
292.54810411019668
0
ARC
5
192
100
AcDbEntity
8
0
100
AcDbCircle
10
1.5680000000000005
20
-31.748000000000005
30
0
40
0.78699999999999981
100
AcDbArc
50
193.80386529230043
51
315.00000000000011
0
LINE
5
193
100
AcDbEntity
8
0
100
AcDbLine
10
2.1244930367938131
20
-32.304493036793815
30
0
11
2.3044930367938101
21
-32.124493036793808
31
0
0
ARC
5
194
100
AcDbEntity
8
0
100
AcDbCircle
10
1.7480000000000007
20
-31.568000000000001
30
0
40
0.78699999999999271
100
AcDbArc
50
-44.999999999999851
51
76.196134707699059
0
ARC
5
195
100
AcDbEntity
8
0
100
AcDbCircle
10
-3.6082248300317588e-15
20
-30
30
0
40
2.0960000000000072
100
AcDbArc
50
-22.548104110196558
51
22.548104110196572
0
ARC
5
196
100
AcDbEntity
8
0
100
AcDbCircle
10
1.7479999999999996
20
-28.431999999999999
30
0
40
0.78699999999999981
100
AcDbArc
50
-76.196134707699031
51
45.000000000000107
0
ARC
5
197
100
AcDbEntity
8
0
100
AcDbCircle
10
-1.7480000000000007
20
-28.431999999999999
30
0
40
0.78699999999999271
100
AcDbArc
50
135.00000000000017
51
256.19613470769912
0
LWPOLYLINE
5
198
100
AcDbEntity
8
0
100
AcDbPolyline
90
16
70
1
43
0.0
10
-1.9357773907841689
20
-9.1962700121752068
42
-0.58433019455587232
10
-2.3044930367938128
20
-7.8755069632061856
10
-2.1244930367938126
20
-7.695506963206185
42
-0.58433019455587321
10
-0.80372998782479099
20
-8.064222609215836
42
-0.19934880077009162
10
0.80372998782479388
20
-8.0642226092158289
42
-0.58433019455587054
10
2.1244930367938131
20
-7.6955069632061859
10
2.3044930367938168
20
-7.8755069632061847
42
-0.58433019455587187
10
1.9357773907841691
20
-9.1962700121752068
42
-0.19934880077009207
10
1.9357773907841684
20
-10.803729987824791
42
-0.58433019455587265
10
2.3044930367938132
20
-12.124493036793814
10
2.1244930367938117
20
-12.304493036793808
42
-0.58433019455587043
10
0.80372998782479854
20
-11.935777390784175
42
-0.19934880077009218
10
-0.80372998782479699
20
-11.935777390784168
42
-0.58433019455587287
10
-2.1244930367938131
20
-12.304493036793811
10
-2.3044930367938115
20
-12.124493036793812
42
-0.58433019455586932
10
-1.9357773907841684
20
-10.803729987824793
42
-0.19934880077009076
0
LWPOLYLINE
5
199
100
AcDbEntity
8
0
100
AcDbPolyline
90
24
70
1
43
0.0
10
-8.5
20
-18.003
42
-0.41421356237309637
10
-7.992
20
-17.494999999999997
10
-6.6449204896855303
20
-17.494999999999997
42
0.19891236737966678
10
-6.2857102448427682
20
-17.346210244842773
10
-2.7432897551572353
20
-13.803789755157228
42
-0.1989123673796527
10
-2.3840795103144705
20
-13.654999999999994
10
2.3837591667548303
20
-13.654999999999994
42
-0.19891236737965004
10
2.7429694115975916
20
-13.803789755157228
10
6.2853899012831205
20
-17.346210244842762
42
0.19891236737965787
10
6.6446001461258808
20
-17.494999999999994
10
7.992
20
-17.494999999999997
42
-0.41421356237309886
10
8.5
20
-18.003
10
8.5000000000000036
20
-21.997
42
-0.41421356237308538
10
7.992
20
-22.505000000000003
10
6.6446001461258897
20
-22.505000000000003
42
0.19891236737964896
10
6.2853899012831373
20
-22.653789755157213
10
2.7429694115975725
20
-26.196210244842785
42
-0.19891236737963541
10
2.3837591667548326
20
-26.344999999999999
10
-2.3840795103144701
20
-26.344999999999992
42
-0.19891236737964993
10
-2.7432897551572131
20
-26.196210244842781
10
-6.28571024484277
20
-22.653789755157199
42
0.19891236737964332
10
-6.6449204896855507
20
-22.504999999999967
10
-7.992
20
-22.504999999999995
42
-0.41421356237308604
10
-8.5
20
-21.997
0
LINE
5
200
100
AcDbEntity
8
0
100
AcDbLine
10
-3.6550000000000034
20
-32.3840795103145
30
0
11
-3.6550000000000002
21
-27.6162408332452
31
0
0
ARC
5
201
100
AcDbEntity
8
0
100
AcDbCircle
10
-4.1629999999999985
20
-27.616240833245204
30
0
40
0.50799999999999845
100
AcDbArc
50
0
51
45.0000000000027
0
LINE
5
202
100
AcDbEntity
8
0
100
AcDbLine
10
-3.8037897551572506
20
-27.257030588402422
30
0
11
-6.9070305884024279
21
-24.153789755157216
31
0
0
ARC
5
203
100
AcDbEntity
8
0
100
AcDbCircle
10
-7.2662408332451642
20
-24.512999999999995
30
0
40
0.50799999999998779
100
AcDbArc
50
45.000000000003332
51
90.000000000000711
0
LINE
5
204
100
AcDbEntity
8
0
100
AcDbLine
10
-7.2662408332451704
20
-24.005000000000006
30
0
11
-7.992
21
-24.004999999999995
31
0
0
ARC
5
205
100
AcDbEntity
8
0
100
AcDbCircle
10
-7.9919999999999956
20
-24.513000000000002
30
0
40
0.50800000000000622
100
AcDbArc
50
90.000000000000497
51
180
0
LINE
5
206
100
AcDbEntity
8
0
100
AcDbLine
10
-8.5000000000000018
20
-24.512999999999998
30
0
11
-8.5
21
-26.861999999999998
31
0
0
ARC
5
207
100
AcDbEntity
8
0
100
AcDbCircle
10
-9.0080000000000062
20
-26.861999999999998
30
0
40
0.50800000000000178
100
AcDbArc
50
-90.000000000000398
51
0
0
LINE
5
208
100
AcDbEntity
8
0
100
AcDbLine
10
-9.0080000000000098
20
-27.370000000000001
30
0
11
-9.4920000000000009
21
-27.36999999999999
31
0
0
ARC
5
209
100
AcDbEntity
8
0
100
AcDbCircle
10
-9.4920000000000133
20
-26.862000000000002
30
0
40
0.50799999999998735
100
AcDbArc
50
180
51
270.00000000000142
0
LINE
5
210
100
AcDbEntity
8
0
100
AcDbLine
10
-10
20
-26.861999999999995
30
0
11
-10
21
-13.137999999999996
31
0
0
ARC
5
211
100
AcDbEntity
8
0
100
AcDbCircle
10
-9.4920000000000027
20
-13.137999999999998
30
0
40
0.50799999999999956
100
AcDbArc
50
89.999999999999801
51
180
0
LINE
5
212
100
AcDbEntity
8
0
100
AcDbLine
10
-9.4920000000000009
20
-12.629999999999999
30
0
11
-9.0079999999999991
21
-12.629999999999999
31
0
0
ARC
5
213
100
AcDbEntity
8
0
100
AcDbCircle
10
-9.0079999999999973
20
-13.137999999999996
30
0
40
0.50799999999999623
100
AcDbArc
50
0
51
90.000000000000199
0
LINE
5
214
100
AcDbEntity
8
0
100
AcDbLine
10
-8.5
20
-13.137999999999998
30
0
11
-8.5000000000000018
21
-15.487
31
0
0
ARC
5
215
100
AcDbEntity
8
0
100
AcDbCircle
10
-7.9919999999999991
20
-15.486999999999998
30
0
40
0.50800000000000289
100
AcDbArc
50
180
51
269.99999999999989
0
LINE
5
216
100
AcDbEntity
8
0
100
AcDbLine
10
-7.992
20
-15.994999999999999
30
0
11
-7.266240833245182
21
-15.994999999999994
31
0
0
ARC
5
217
100
AcDbEntity
8
0
100
AcDbCircle
10
-7.2662408332451625
20
-15.487000000000016
30
0
40
0.50799999999997958
100
AcDbArc
50
269.99999999999784
51
315.00000000000017
0
LINE
5
218
100
AcDbEntity
8
0
100
AcDbLine
10
-6.907030588402411
20
-15.846210244842766
30
0
11
-3.8037897551572328
21
-12.742969411597587
31
0
0
ARC
5
219
100
AcDbEntity
8
0
100
AcDbCircle
10
-4.1630000000000074
20
-12.383759166754817
30
0
40
0.50800000000000778
100
AcDbArc
50
-44.999999999999595
51
0
0
LINE
5
220
100
AcDbEntity
8
0
100
AcDbLine
10
-3.6549999999999994
20
-12.383759166754817
30
0
11
-3.6549999999999985
21
-7.6159204896855286
31
0
0
ARC
5
221
100
AcDbEntity
8
0
100
AcDbCircle
10
-4.1629999999999878
20
-7.6159204896855268
30
0
40
0.50799999999998957
100
AcDbArc
50
0
51
44.999999999999922
0
LINE
5
222
100
AcDbEntity
8
0
100
AcDbLine
10
-3.8037897551572293
20
-7.2567102448427692
30
0
11
-6.9067102448427606
21
-4.1537897551572387
31
0
0
ARC
5
223
100
AcDbEntity
8
0
100
AcDbCircle
10
-7.2659204896855307
20
-4.5129999999999999
30
0
40
0.50799999999999923
100
AcDbArc
50
44.999999999999289
51
89.999999999999901
0
LINE
5
224
100
AcDbEntity
8
0
100
AcDbLine
10
-7.2659204896855298
20
-4.0049999999999999
30
0
11
-7.992
21
-4.0049999999999981
31
0
0
ARC
5
225
100
AcDbEntity
8
0
100
AcDbCircle
10
-7.992
20
-4.5129999999999981
30
0
40
0.50800000000000012
100
AcDbArc
50
90
51
180
0
LINE
5
226
100
AcDbEntity
8
0
100
AcDbLine
10
-8.5
20
-4.512999999999999
30
0
11
-8.5000000000000107
21
-6.8619999999999992
31
0
0
ARC
5
227
100
AcDbEntity
8
0
100
AcDbCircle
10
-9.0080000000000098
20
-6.8619999999999992
30
0
40
0.50799999999999956
100
AcDbArc
50
-90
51
0
0
LINE
5
228
100
AcDbEntity
8
0
100
AcDbLine
10
-9.0080000000000098
20
-7.3699999999999992
30
0
11
-9.4920000000000009
21
-7.3699999999999974
31
0
0
ARC
5
229
100
AcDbEntity
8
0
100
AcDbCircle
10
-9.4920000000000009
20
-6.8619999999999983
30
0
40
0.50799999999999956
100
AcDbArc
50
180
51
270
0
LINE
5
230
100
AcDbEntity
8
0
100
AcDbLine
10
-10
20
-6.8619999999999983
30
0
11
-10
21
-1.499999999999998
31
0
0
ARC
5
231
100
AcDbEntity
8
0
100
AcDbCircle
10
-8.5
20
-1.4999999999999969
30
0
40
1.499999999999998
100
AcDbArc
50
90
51
180
0
LINE
5
232
100
AcDbEntity
8
0
100
AcDbLine
10
-8.5
20
1.1102230246251565e-15
30
0
11
-3.1380000000000008
21
7.5633943552588789e-15
31
0
0
ARC
5
233
100
AcDbEntity
8
0
100
AcDbCircle
10
-3.1379999999999999
20
-0.50799999999999701
30
0
40
0.50799999999999956
100
AcDbArc
50
0
51
90.000000000000099
0
LINE
5
234
100
AcDbEntity
8
0
100
AcDbLine
10
-2.6299999999999999
20
-0.50799999999999745
30
0
11
-2.6300000000000008
21
-0.99199999999999944
31
0
0
ARC
5
235
100
AcDbEntity
8
0
100
AcDbCircle
10
-3.1380000000000008
20
-0.99199999999999944
30
0
40
0.50799999999999856
100
AcDbArc
50
-89.999999999999943
51
0
0
LINE
5
236
100
AcDbEntity
8
0
100
AcDbLine
10
-3.1380000000000003
20
-1.499999999999998
30
0
11
-5.487000000000001
21
-1.4999999999999987
31
0
0
ARC
5
237
100
AcDbEntity
8
0
100
AcDbCircle
10
-5.487000000000001
20
-2.0079999999999982
30
0
40
0.50799999999999979
100
AcDbArc
50
90
51
180
0
LINE
5
238
100
AcDbEntity
8
0
100
AcDbLine
10
-5.9950000000000001
20
-2.0079999999999987
30
0
11
-5.995000000000001
21
-2.733759166754818
31
0
0
ARC
5
239
100
AcDbEntity
8
0
100
AcDbCircle
10
-5.4869999999999974
20
-2.7337591667548282
30
0
40
0.508000000000004
100
AcDbArc
50
180
51
224.99999999999895
0
LINE
5
240
100
AcDbEntity
8
0
100
AcDbLine
10
-5.8462102448427729
20
-3.0929694115975908
30
0
11
-2.7429694115975929
21
-6.1962102448427716
31
0
0
ARC
5
241
100
AcDbEntity
8
0
100
AcDbCircle
10
-2.3837591667548308
20
-5.8370000000000113
30
0
40
0.50799999999999301
100
AcDbArc
50
224.99999999999986
51
270
0
LINE
5
242
100
AcDbEntity
8
0
100
AcDbLine
10
-2.3837591667548308
20
-6.3450000000000042
30
0
11
2.3840795103144705
21
-6.3449999999999935
31
0
0
ARC
5
243
100
AcDbEntity
8
0
100
AcDbCircle
10
2.3840795103144572
20
-5.836999999999982
30
0
40
0.50800000000001178
100
AcDbArc
50
270.00000000000153
51
314.99999999999892
0
LINE
5
244
100
AcDbEntity
8
0
100
AcDbLine
10
2.7432897551572251
20
-6.1962102448427636
30
0
11
5.8462102448427578
21
-3.0932897551572367
31
0
0
ARC
5
245
100
AcDbEntity
8
0
100
AcDbCircle
10
5.486999999999993
20
-2.7340795103144599
30
0
40
0.50800000000000667
100
AcDbArc
50
-45.000000000000966
51
0
0
LINE
5
246
100
AcDbEntity
8
0
100
AcDbLine
10
5.9950000000000001
20
-2.7340795103144586
30
0
11
5.9949999999999992
21
-2.0079999999999987
31
0
0
ARC
5
247
100
AcDbEntity
8
0
100
AcDbCircle
10
5.487000000000001
20
-2.007999999999988
30
0
40
0.50799999999999845
100
AcDbArc
50
0
51
90.000000000000099
0
LINE
5
248
100
AcDbEntity
8
0
100
AcDbLine
10
5.4870000000000001
20
-1.4999999999999898
30
0
11
3.1380000000000003
21
-1.4999999999999936
31
0
0
ARC
5
249
100
AcDbEntity
8
0
100
AcDbCircle
10
3.1380000000000008
20
-0.99199999999998789
30
0
40
0.50800000000000078
100
AcDbArc
50
180
51
269.99999999999994
0
LINE
5
250
100
AcDbEntity
8
0
100
AcDbLine
10
2.6299999999999999
20
-0.99200000756977869
30
0
11
2.6300000000000012
21
-0.50799999999999723
31
0
0
ARC
5
251
100
AcDbEntity
8
0
100
AcDbCircle
10
3.1380000000000003
20
-0.50799999999999756
30
0
40
0.50799999999999856
100
AcDbArc
50
89.999999999999943
51
180
0
LINE
5
252
100
AcDbEntity
8
0
100
AcDbLine
10
3.1380000000000008
20
1.0408340855860843e-15
30
0
11
8.5
21
1.9428902930940239e-15
31
0
0
ARC
5
253
100
AcDbEntity
8
0
100
AcDbCircle
10
8.5
20
-1.4999999999999971
30
0
40
1.4999999999999991
100
AcDbArc
50
0
51
90
0
LINE
5
254
100
AcDbEntity
8
0
100
AcDbLine
10
10
20
-1.4999999999999993
30
0
11
10
21
-6.8619999999999992
31
0
0
ARC
5
255
100
AcDbEntity
8
0
100
AcDbCircle
10
9.4920000000000009
20
-6.8619999999999983
30
0
40
0.50800000000000067
100
AcDbArc
50
270
51
360
0
LINE
5
256
100
AcDbEntity
8
0
100
AcDbLine
10
9.4920000000000009
20
-7.3699999999999992
30
0
11
9.0079999999999991
21
-7.3699999999999992
31
0
0
ARC
5
257
100
AcDbEntity
8
0
100
AcDbCircle
10
9.0079999999999991
20
-6.8619999999999992
30
0
40
0.50799999999999845
100
AcDbArc
50
180
51
270
0
LINE
5
258
100
AcDbEntity
8
0
100
AcDbLine
10
8.5
20
-6.8619999999999992
30
0
11
8.5000000000000018
21
-4.5129999999999981
31
0
0
ARC
5
259
100
AcDbEntity
8
0
100
AcDbCircle
10
7.9920000000000009
20
-4.5129999999999972
30
0
40
0.50800000000000067
100
AcDbArc
50
0
51
90.000000000000099
0
LINE
5
260
100
AcDbEntity
8
0
100
AcDbLine
10
7.992
20
-4.0049999999999963
30
0
11
7.2662408332451811
21
-4.0049999999999937
31
0
0
ARC
5
261
100
AcDbEntity
8
0
100
AcDbCircle
10
7.2662408332451802
20
-4.512999999999999
30
0
40
0.50800000000000511
100
AcDbArc
50
89.999999999999901
51
134.99999999999994
0
LINE
5
262
100
AcDbEntity
8
0
100
AcDbLine
10
6.907030588402411
20
-4.1537897551572289
30
0
11
3.8037897551572315
21
-7.2570305884024098
31
0
0
ARC
5
263
100
AcDbEntity
8
0
100
AcDbCircle
10
4.1629999999999976
20
-7.6162408332451781
30
0
40
0.50800000000000112
100
AcDbArc
50
134.9999999999998
51
180
0
LINE
5
264
100
AcDbEntity
8
0
100
AcDbLine
10
3.6549999999999958
20
-7.616240833245179
30
0
11
3.6549999999999954
21
-12.38407951031447
31
0
0
ARC
5
265
100
AcDbEntity
8
0
100
AcDbCircle
10
4.1629999999999967
20
-12.384079510314459
30
0
40
0.50800000000000123
100
AcDbArc
50
180
51
225.00000000000057
0
LINE
5
266
100
AcDbEntity
8
0
100
AcDbLine
10
3.8037897551572328
20
-12.74328975515723
30
0
11
6.9067102448427589
21
-15.84621024484276
31
0
0
ARC
5
267
100
AcDbEntity
8
0
100
AcDbCircle
10
7.2659204896855245
20
-15.487000000000011
30
0
40
0.50799999999998779
100
AcDbArc
50
224.99999999999872
51
270.00000000000063
0
LINE
5
268
100
AcDbEntity
8
0
100
AcDbLine
10
7.2659204896855298
20
-15.994999999999997
30
0
11
7.992
21
-15.994999999999999
31
0
0
ARC
5
269
100
AcDbEntity
8
0
100
AcDbCircle
10
7.9920000000000027
20
-15.487000000000002
30
0
40
0.50799999999999734
100
AcDbArc
50
-90.000000000000313
51
0
0
LINE
5
270
100
AcDbEntity
8
0
100
AcDbLine
10
8.5
20
-15.487
30
0
11
8.5000000000000107
21
-13.137999999999998
31
0
0
ARC
5
271
100
AcDbEntity
8
0
100
AcDbCircle
10
9.008000000000008
20
-13.137999999999996
30
0
40
0.50799999999999734
100
AcDbArc
50
89.999999999999801
51
180
0
LINE
5
272
100
AcDbEntity
8
0
100
AcDbLine
10
9.0080000000000098
20
-12.629999999999999
30
0
11
9.4920000000000009
21
-12.630000000000001
31
0
0
ARC
5
273
100
AcDbEntity
8
0
100
AcDbCircle
10
9.4920000000000027
20
-13.137999999999998
30
0
40
0.50799999999999734
100
AcDbArc
50
0
51
90.000000000000199
0
LINE
5
274
100
AcDbEntity
8
0
100
AcDbLine
10
10
20
-13.138000000000002
30
0
11
10.000000000000004
21
-26.861999999999998
31
0
0
ARC
5
275
100
AcDbEntity
8
0
100
AcDbCircle
10
9.4920000000000027
20
-26.861999999999998
30
0
40
0.50800000000000178
100
AcDbArc
50
-90.000000000000199
51
0
0
LINE
5
276
100
AcDbEntity
8
0
100
AcDbLine
10
9.4920000000000009
20
-27.370000000000001
30
0
11
9.0080000000000098
21
-27.36999999999999
31
0
0
ARC
5
277
100
AcDbEntity
8
0
100
AcDbCircle
10
9.007999999999992
20
-26.862000000000002
30
0
40
0.50799999999998069
100
AcDbArc
50
180
51
270.00000000000199
0
LINE
5
278
100
AcDbEntity
8
0
100
AcDbLine
10
8.5000000000000107
20
-26.861999999999995
30
0
11
8.4999999999999929
21
-24.512999999999998
31
0
0
ARC
5
279
100
AcDbEntity
8
0
100
AcDbCircle
10
7.9919999999999956
20
-24.512999999999995
30
0
40
0.50799999999999734
100
AcDbArc
50
0
51
90.000000000000597
0
LINE
5
280
100
AcDbEntity
8
0
100
AcDbLine
10
7.9919999999999902
20
-24.004999999999995
30
0
11
7.2659204896855289
21
-24.004999999999992
31
0
0
ARC
5
281
100
AcDbEntity
8
0
100
AcDbCircle
10
7.2659204896855414
20
-24.513000000000027
30
0
40
0.50800000000003287
100
AcDbArc
50
90.000000000001393
51
134.99999999999673
0
LINE
5
282
100
AcDbEntity
8
0
100
AcDbLine
10
6.9067102448427722
20
-24.153789755157216
30
0
11
3.8037897551571955
21
-27.256710244842761
31
0
0
ARC
5
283
100
AcDbEntity
8
0
100
AcDbCircle
10
4.1630000000000305
20
-27.615920489685504
30
0
40
0.5080000000000322
100
AcDbArc
50
135.00000000000739
51
180
0
LINE
5
284
100
AcDbEntity
8
0
100
AcDbLine
10
3.6549999999999985
20
-27.615920489685504
30
0
11
3.6549999999999998
21
-32.3837591667548
31
0
0
ARC
5
285
100
AcDbEntity
8
0
100
AcDbCircle
10
-1.7479999999999929
20
-28.431999999999999
30
0
40
0.78700000000000381
100
AcDbArc
50
135.00000000000097
51
256.19613470769843
0
ARC
5
286
100
AcDbEntity
8
0
100
AcDbCircle
10
-1.9428902930940239e-14
20
-30
30
0
40
2.0959999999999859
100
AcDbArc
50
157.4518958898033
51
202.54810411019679
0
ARC
5
287
100
AcDbEntity
8
0
100
AcDbCircle
10
-1.9428902930940239e-14
20
-30
30
0
40
2.0960000000000143
100
AcDbArc
50
-22.548104110196508
51
22.548104110196391
0
ARC
5
288
100
AcDbEntity
8
0
100
AcDbCircle
10
1.7479999999999842
20
-28.431999999999999
30
0
40
0.78700000000000647
100
AcDbArc
50
-76.196134707698434
51
44.999999999998401
0
LINE
5
289
100
AcDbEntity
8
0
100
AcDbLine
10
2.304493036793815
20
-27.875506963206199
30
0
11
2.1244930367938206
21
-27.695506963206192
31
0
0
ARC
5
290
100
AcDbEntity
8
0
100
AcDbCircle
10
1.5679999999999987
20
-28.251999999999995
30
0
40
0.78700000000000159
100
AcDbArc
50
44.999999999999034
51
166.19613470770039
0
ARC
5
291
100
AcDbEntity
8
0
100
AcDbCircle
10
-1.9428902930940239e-14
20
-30
30
0
40
2.0959999999999961
100
AcDbArc
50
67.451895889802927
51
112.54810411019596
0
ARC
5
292
100
AcDbEntity
8
0
100
AcDbCircle
10
-1.5680000000000027
20
-28.252000000000002
30
0
40
0.78700000000000814
100
AcDbArc
50
13.803865292301079
51
135
0
LINE
5
293
100
AcDbEntity
8
0
100
AcDbLine
10
-2.1244930367938202
20
-27.695506963206185
30
0
11
-2.3044930367938181
21
-27.875506963206192
31
0
0
ENDSEC
0
SECTION
2
OBJECTS
0
DICTIONARY
5
C
100
AcDbDictionary
3
ACAD_GROUP
350
D
3
ACAD_MLINESTYLE
350
17
0
DICTIONARY
5
D
100
AcDbDictionary
0
DICTIONARY
5
1A
330
C
100
AcDbDictionary
0
DICTIONARY
5
17
100
AcDbDictionary
0
ENDSEC
0
EOF
